<?xml version="1.0" standalone="no"?>
<!DOCTYPE svg PUBLIC "-//W3C//DTD SVG 20010904//EN"
 "http://www.w3.org/TR/2001/REC-SVG-20010904/DTD/svg10.dtd">
<svg version="1.0" xmlns="http://www.w3.org/2000/svg"
 width="300.000000pt" height="168.000000pt" viewBox="0 0 300.000000 168.000000"
 preserveAspectRatio="xMidYMid meet">

<g transform="translate(0.000000,168.000000) scale(0.100000,-0.100000)"
fill="#000000" stroke="none">
<path d="M981 1664 c0 -11 3 -14 6 -6 3 7 2 16 -1 19 -3 4 -6 -2 -5 -13z"/>
<path d="M1120 1640 c0 -40 0 -40 -39 -40 -22 0 -41 -5 -44 -12 -3 -7 -3 5 -1
27 4 36 0 35 -12 -4 -4 -11 -8 -10 -19 5 -19 25 -18 17 1 -53 11 -39 18 -118
21 -238 4 -171 3 -187 -26 -329 -31 -155 -46 -198 -36 -105 3 29 2 74 -3 99
l-10 45 -1 -37 c-1 -48 -21 -50 -21 -3 0 21 6 37 16 43 11 6 14 16 9 31 -8 25
-25 28 -26 4 0 -11 -3 -13 -6 -5 -9 22 -23 12 -22 -15 3 -64 -89 -375 -135
-458 -13 -22 -29 -55 -36 -74 -24 -60 -170 -271 -235 -339 -88 -93 -83 -88
-149 -137 l-59 -44 691 -1 692 0 6 25 c3 14 9 25 13 25 4 0 21 19 38 42 53 73
85 108 99 108 8 0 14 5 14 12 0 6 6 4 13 -6 12 -16 13 -15 12 11 0 23 4 27 20
25 11 -2 26 -11 33 -20 12 -15 13 -14 10 8 -2 17 -8 24 -20 22 -24 -4 -23 15
1 28 30 16 38 12 43 -19 5 -34 -5 -66 -21 -67 -6 -1 -15 -2 -21 -3 -16 -2 -12
-31 5 -33 8 0 20 -1 25 -2 6 -1 21 7 33 17 12 9 44 35 72 57 27 22 55 40 61
40 6 0 19 10 30 21 18 20 57 42 79 44 6 0 15 4 22 8 14 9 45 -2 37 -14 -3 -5
-13 -9 -24 -9 -14 0 -19 -10 -22 -48 -6 -70 -3 -72 55 -41 57 31 53 30 147 65
141 52 184 58 383 59 l187 0 0 663 0 662 -539 0 c-422 0 -540 -3 -544 -12 -4
-9 -8 -10 -14 -2 -4 6 -38 12 -75 13 -62 2 -68 1 -68 -17 0 -11 -9 -22 -21
-25 -18 -5 -20 -12 -18 -66 2 -38 -2 -66 -11 -75 -17 -22 -30 -20 -30 4 0 17
-7 20 -40 20 -27 0 -40 -4 -40 -13 0 -8 -18 -20 -40 -27 -22 -7 -40 -19 -40
-27 0 -9 -17 -13 -60 -13 -33 0 -60 -4 -60 -9 0 -14 -37 -23 -60 -16 -16 5
-20 15 -20 56 0 42 -3 49 -20 49 -17 0 -20 7 -20 40 0 28 -4 40 -14 40 -8 0
-17 12 -21 27 -11 44 -24 53 -76 53 l-49 0 0 -40z m740 -14 c0 -14 -4 -28 -10
-31 -6 -4 -10 7 -10 24 0 17 5 31 10 31 6 0 10 -11 10 -24z m-60 -35 c0 -5 -9
-19 -20 -32 l-19 -24 -1 33 c0 25 4 32 20 32 11 0 20 -4 20 -9z m-680 -92 c0
-18 -2 -19 -15 -9 -8 7 -15 16 -15 21 0 5 7 9 15 9 9 0 15 -9 15 -21z m500
-125 c0 -8 -4 -14 -10 -14 -5 0 -10 9 -10 21 0 11 5 17 10 14 6 -3 10 -13 10
-21z m-151 -37 c12 -15 5 -27 -16 -27 -7 0 -13 9 -13 20 0 23 13 26 29 7z
m-513 -454 c-11 -11 -17 4 -9 23 7 18 8 18 11 1 2 -10 1 -21 -2 -24z m1807
-400 c-7 -2 -13 -16 -13 -29 0 -15 -6 -24 -15 -24 -8 0 -15 -7 -15 -15 0 -8
-5 -15 -11 -15 -5 0 -7 5 -4 10 3 6 -3 10 -14 10 -26 0 -36 -17 -14 -23 12 -3
8 -5 -9 -6 -14 0 -28 5 -31 12 -3 8 -10 6 -21 -8 -11 -14 -18 -17 -24 -8 -4 7
-29 17 -56 23 -27 6 -56 15 -65 20 -17 9 -16 10 94 31 114 22 229 35 198 22z
m-326 -69 c-3 -3 -12 -4 -19 -1 -8 3 -5 6 6 6 11 1 17 -2 13 -5z m-357 -24 c0
-5 -4 -10 -10 -10 -5 0 -10 5 -10 10 0 6 5 10 10 10 6 0 10 -4 10 -10z m272
-35 c3 -44 -13 -60 -20 -19 -2 10 -8 24 -14 29 -6 6 -7 3 -2 -8 6 -17 5 -18
-14 -6 -21 13 -21 13 6 31 15 10 30 18 33 18 4 0 9 -20 11 -45z m511 38 c-13
-2 -33 -2 -45 0 -13 2 -3 4 22 4 25 0 35 -2 23 -4z m-143 -13 c0 -5 -7 -10
-16 -10 -8 0 -12 5 -9 10 3 6 10 10 16 10 5 0 9 -4 9 -10z m-750 -64 c0 -3 -4
-8 -10 -11 -5 -3 -10 -1 -10 4 0 6 5 11 10 11 6 0 10 -2 10 -4z m370 -36 c0
-5 -4 -10 -10 -10 -5 0 -10 5 -10 10 0 6 5 10 10 10 6 0 10 -4 10 -10z m-1671
-36 c6 -15 9 -29 6 -32 -3 -3 -5 0 -5 6 0 19 -18 14 -23 -5 -2 -10 -4 -1 -4
20 -1 43 9 48 26 11z m-99 -89 c11 -13 11 -18 0 -28 -10 -10 -11 -9 -5 2 5 9
1 19 -10 28 -11 7 -14 13 -8 13 6 0 16 -7 23 -15z m-74 -114 c0 -11 -4 -17 -8
-15 -4 3 -8 12 -8 20 0 8 4 14 8 14 4 0 8 -9 8 -19z"/>
<path d="M2608 443 c6 -2 18 -2 25 0 6 3 1 5 -13 5 -14 0 -19 -2 -12 -5z"/>
<path d="M1280 1620 c0 -17 7 -20 40 -20 33 0 40 3 40 20 0 17 -7 20 -40 20
-33 0 -40 -3 -40 -20z"/>
<path d="M976 1065 c-9 -23 -8 -25 9 -25 17 0 19 9 6 28 -7 11 -10 10 -15 -3z"/>
<path d="M1826 139 c-4 -29 -14 -65 -22 -81 -9 -17 -13 -37 -10 -45 5 -12 10
-11 31 9 24 22 34 50 16 46 -12 -4 -13 6 -5 37 9 35 24 31 24 -5 l0 -31 35 35
c42 42 43 50 10 44 -17 -4 -32 2 -49 18 l-23 24 -7 -51z"/>
</g>
</svg>
